<?xml version="1.0" encoding="UTF-8"?>
<svg version="1.1" xmlns="http://www.w3.org/2000/svg" width="1066" height="1079">
<path d="M0 0 C351.78 0 703.56 0 1066 0 C1066 356.07 1066 712.14 1066 1079 C714.22 1079 362.44 1079 0 1079 C0 722.93 0 366.86 0 0 Z " fill="#1A1C2B" transform="translate(0,0)"/>
<path d="M0 0 C351.78 0 703.56 0 1066 0 C1066 78.54 1066 157.08 1066 238 C1055.99830197 243.88335178 1046.03283061 249.7222065 1035.875 255.3125 C1033.53086489 256.60868621 1031.18702871 257.90539319 1028.84375 259.203125 C1027.11705078 260.15928711 1027.11705078 260.15928711 1025.35546875 261.13476562 C1020.34752844 263.91857412 1015.35963915 266.73723532 1010.375 269.5625 C1002.42966218 274.06513412 994.47093795 278.54283428 986.5 283 C978.48874884 287.48029314 970.48777993 291.97799235 962.5 296.5 C953.46059691 301.61734803 944.40185704 306.6993318 935.3359375 311.76953125 C928.38030205 315.66158037 921.43614796 319.57333772 914.5 323.5 C905.46059691 328.61734803 896.40185704 333.6993318 887.3359375 338.76953125 C880.38030205 342.66158037 873.43614796 346.57333772 866.5 350.5 C857.46059691 355.61734803 848.40185704 360.6993318 839.3359375 365.76953125 C832.38030205 369.66158037 825.43614796 373.57333772 818.5 377.5 C809.46059691 382.61734803 800.40185704 387.6993318 791.3359375 392.76953125 C783.43660073 397.1896316 775.55340416 401.63762811 767.67724609 406.09887695 C762.66005509 408.9385605 757.63616205 411.76549808 752.6015625 414.57421875 C751.5297876 415.17218262 750.4580127 415.77014648 749.35375977 416.38623047 C747.22417102 417.57429139 745.0944538 418.76212205 742.96459961 419.94970703 C735.89089228 423.9065953 728.87905844 427.95514912 721.94775391 432.15698242 C717.20999604 435 717.20999604 435 715 435 C714.93268677 433.92238403 714.93268677 433.92238403 714.86401367 432.82299805 C711.18910832 375.43864155 693.14346319 326.52767693 650 287 C616.4124029 257.46035187 572.31445706 242.60422719 528.0625 242.5 C527.20689484 242.49532715 526.35128967 242.4906543 525.46975708 242.48583984 C478.23822381 242.38603375 434.59930292 261.26300305 400 293 C399.48630859 293.46841309 398.97261719 293.93682617 398.44335938 294.41943359 C385.79211097 306.10031988 375.47521419 320.04993274 367 335 C366.65018066 335.59619141 366.30036133 336.19238281 365.93994141 336.80664062 C343.56962326 375.09941968 335.8384787 425.26897542 346.51953125 468.51171875 C347.00757487 470.3426062 347.50093869 472.172085 348 474 C348.22993652 474.88768066 348.45987305 475.77536133 348.69677734 476.68994141 C361.19291928 524.54317852 392.76928252 563.97057476 435 589 C435.66 589.33 436.32 589.66 437 590 C435.7993458 593.60196261 435.14733522 593.7552492 431.8984375 595.4609375 C431.02791748 595.9254834 430.15739746 596.3900293 429.26049805 596.86865234 C428.30828369 597.36574707 427.35606934 597.8628418 426.375 598.375 C424.34678139 599.45669453 422.31946434 600.54008092 420.29296875 601.625 C419.2467334 602.18316406 418.20049805 602.74132812 417.12255859 603.31640625 C412.27079978 605.932335 407.47837476 608.64960225 402.6875 611.375 C400.76448147 612.46642524 398.84130229 613.55756748 396.91796875 614.6484375 C395.46656494 615.47166504 395.46656494 615.47166504 393.98583984 616.31152344 C388.83363125 619.22507002 383.66643591 622.11178136 378.5 625 C370.48869542 629.48019703 362.4877794 633.97799265 354.5 638.5 C345.46059691 643.61734803 336.40185704 648.6993318 327.3359375 653.76953125 C320.38030205 657.66158037 313.43614796 661.57333772 306.5 665.5 C297.46059691 670.61734803 288.40185704 675.6993318 279.3359375 680.76953125 C272.38030205 684.66158037 265.43614796 688.57333772 258.5 692.5 C249.46059691 697.61734803 240.40185704 702.6993318 231.3359375 707.76953125 C224.38030205 711.66158037 217.43614796 715.57333772 210.5 719.5 C201.46059691 724.61734803 192.40185704 729.6993318 183.3359375 734.76953125 C176.38030205 738.66158037 169.43614796 742.57333772 162.5 746.5 C153.46059691 751.61734803 144.40185704 756.6993318 135.3359375 761.76953125 C128.38030205 765.66158037 121.43614796 769.57333772 114.5 773.5 C105.46059691 778.61734803 96.40185704 783.6993318 87.3359375 788.76953125 C80.38030205 792.66158037 73.43614796 796.57333772 66.5 800.5 C58.51221925 805.02200811 50.51117154 809.51956349 42.5 814 C34.07430873 818.71324467 25.6563425 823.43982092 17.25 828.1875 C15.81237305 828.99864258 15.81237305 828.99864258 14.34570312 829.82617188 C13.45302734 830.33083984 12.56035156 830.83550781 11.640625 831.35546875 C10.86235352 831.79528076 10.08408203 832.23509277 9.28222656 832.68823242 C7.61357914 833.64732983 5.96715604 834.64538555 4.33496094 835.6652832 C2 837 2 837 0 837 C0 560.79 0 284.58 0 0 Z " fill="#0C0D16" transform="translate(0,0)"/>
<path d="M0 0 C0.88936249 0.00209473 1.77872498 0.00418945 2.69503784 0.00634766 C17.92059441 0.07986079 32.21095718 1.35785364 46.9375 5.5 C47.95005859 5.78407715 48.96261719 6.0681543 50.00585938 6.36083984 C80.039945 15.07904122 106.2610922 29.98198455 128.9375 51.5 C129.89398437 52.40363281 130.85046875 53.30726563 131.8359375 54.23828125 C162.46317621 83.69650357 185.03948844 127.9201091 186.09863281 170.90795898 C186.11843325 172.43727312 186.13220587 173.96667461 186.140625 175.49609375 C186.14632507 176.32851089 186.15202515 177.16092804 186.15789795 178.01856995 C186.16728169 179.77237709 186.1738553 181.52620134 186.17773438 183.2800293 C186.18736186 185.89990969 186.21841661 188.51897736 186.25 191.13867188 C186.34167042 205.71564249 184.5726395 219.71472682 180.75 233.8125 C180.43808716 234.96878906 180.43808716 234.96878906 180.11987305 236.1484375 C166.46193011 284.85769517 134.44808251 325.17409438 90.49609375 350.0390625 C80.33221492 355.64548006 70.01111934 360.11092402 59.01074219 363.80224609 C57.22091113 364.4046174 55.44136616 365.03739414 53.6640625 365.67578125 C50.44545264 366.76977069 47.23334973 367.66529023 43.9375 368.5 C43.23496094 368.68191895 42.53242187 368.86383789 41.80859375 369.05126953 C28.02608143 372.45375536 14.3062467 372.89981935 0.1875 372.9375 C-0.67242554 372.94358276 -1.53235107 372.94966553 -2.41833496 372.95593262 C-48.88655182 373.1707659 -93.00955174 354.91715159 -127.0625 323.5 C-127.64241699 322.96536133 -128.22233398 322.43072266 -128.81982422 321.87988281 C-142.09278992 309.48201747 -153.11579183 295.30461877 -162.0625 279.5 C-162.41763672 278.88785645 -162.77277344 278.27571289 -163.13867188 277.64501953 C-173.35271881 259.93860627 -179.63078491 241.06109091 -183.55883789 221.04418945 C-183.8890879 219.37597069 -184.24426598 217.71245228 -184.62670898 216.05541992 C-186.53918947 207.15460478 -186.41637025 198.24725293 -186.375 189.1875 C-186.37284485 188.3437381 -186.3706897 187.4999762 -186.36846924 186.63064575 C-186.15482253 134.51505031 -166.04016736 87.95563691 -129.10522461 51.23999023 C-94.53068907 17.76128737 -47.86452311 -0.26141008 0 0 Z " fill="#5498FE" transform="translate(528.0625,241.5)"/>
<path d="M0 0 C1.22855713 -0.00705963 2.45711426 -0.01411926 3.72290039 -0.02139282 C7.68117041 -0.0389368 11.63935544 -0.04608677 15.59765625 -0.046875 C16.61355772 -0.04731686 16.61355772 -0.04731686 17.64998245 -0.04776764 C61.24303403 -0.05082613 104.30148814 3.33128531 146.66015625 14.203125 C147.76633301 14.47850098 148.87250977 14.75387695 150.01220703 15.03759766 C177.08053313 21.79464036 203.37370906 30.32437539 228.66015625 42.203125 C229.64322754 42.66444824 230.62629883 43.12577148 231.63916016 43.60107422 C252.84417714 53.65702655 272.41745085 65.42219462 290.66015625 80.203125 C291.24732422 80.67459961 291.83449219 81.14607422 292.43945312 81.63183594 C319.11991535 103.16263277 341.72704771 131.22297674 349.66015625 165.203125 C349.97726562 166.46189453 349.97726562 166.46189453 350.30078125 167.74609375 C352.08873549 175.16610383 352.71241821 182.37112743 352.68359375 190 C352.68020996 191.16370117 352.67682617 192.32740234 352.67333984 193.52636719 C352.66898926 194.40969727 352.66463867 195.29302734 352.66015625 196.203125 C297.73120407 196.39463397 242.80225069 196.58579684 187.87329102 196.77514648 C187.05540991 196.77796596 186.2375288 196.78078543 185.39486341 196.78369035 C167.60397838 196.84501867 149.81309314 196.90628558 132.02220768 196.96748954 C123.29279987 196.9975207 114.56339211 197.02756539 105.83398438 197.05761719 C104.53122421 197.06210172 104.53122421 197.06210172 103.20214565 197.06667684 C75.24226148 197.16293024 47.28238048 197.26006979 19.32250105 197.3576877 C-9.50081978 197.45831537 -38.32414369 197.55801154 -67.14747157 197.6565972 C-71.25386251 197.67064288 -75.36025341 197.68469881 -79.46664429 197.69876099 C-80.27454293 197.70152729 -81.08244157 197.70429359 -81.91482199 197.70714372 C-93.93862924 197.74833847 -105.96243356 197.79032037 -117.98623657 197.83273315 C-136.08456924 197.89653063 -154.18290569 197.95912087 -172.28125 198.01953125 C-172.99024383 198.02190024 -173.69923765 198.02426923 -174.42971614 198.02671 C-221.39982071 198.18340705 -268.36948102 198.26838226 -315.33984375 198.203125 C-315.36377878 195.16434075 -315.38124196 192.12574741 -315.39501953 189.08691406 C-315.40241653 188.23215485 -315.40981354 187.37739563 -315.41743469 186.49673462 C-315.43920987 180.0871254 -314.82671838 174.17224952 -313.21484375 167.953125 C-312.87706909 166.57338501 -312.87706909 166.57338501 -312.5324707 165.16577148 C-303.72322769 130.5962121 -280.26995149 100.73562952 -252.33984375 79.203125 C-251.52870117 78.57736572 -251.52870117 78.57736572 -250.70117188 77.93896484 C-200.63094651 39.59062822 -140.1467239 19.05970346 -78.73242188 7.82421875 C-75.95847988 7.31638136 -73.18796167 6.79437687 -70.41796875 6.265625 C-56.21243421 3.64017428 -41.72774472 2.38773541 -27.33984375 1.203125 C-26.31563828 1.11873169 -25.2914328 1.03433838 -24.2361908 0.9473877 C-16.14763346 0.3219073 -8.1112656 0.03136168 0 0 Z " fill="#5498FE" transform="translate(509.33984375,639.796875)"/>
</svg>
